<svg xmlns="http://www.w3.org/2000/svg" width="47.501" height="46.35" viewBox="0 0 47.501 46.35">
  <g id="Group_7" data-name="Group 7" transform="matrix(0.998, 0.07, -0.07, 0.998, -575.91, -480.099)" style="isolation: isolate">
    <g id="Group_2" data-name="Group 2">
      <g id="Group_1" data-name="Group 1" transform="translate(607.997 435.443)">
        <g id="Ellipse_1" data-name="Ellipse 1" fill="rgba(7,204,255,0.72)">
          <path d="M25.5,3.075A22.773,22.773,0,0,1,34.11,4.75a22.382,22.382,0,0,1,7.058,4.578,21.7,21.7,0,0,1,4.8,6.822,21.188,21.188,0,0,1,.141,16.871,21.672,21.672,0,0,1-4.749,6.955,22.364,22.364,0,0,1-7.113,4.712,22.954,22.954,0,0,1-17.5,0,22.364,22.364,0,0,1-7.113-4.712,21.672,21.672,0,0,1-4.749-6.955,21.188,21.188,0,0,1,.141-16.871,21.7,21.7,0,0,1,4.8-6.822A22.382,22.382,0,0,1,16.9,4.75,22.773,22.773,0,0,1,25.5,3.075Z" stroke="none"/>
          <path d="M 25.50338172912598 45.46222305297852 C 26.22779083251953 45.46222305297852 26.94674110412598 45.42744827270508 27.65898513793945 45.3581657409668 C 28.37118911743164 45.28887176513672 29.07664680480957 45.18507385253906 29.77411079406738 45.0470085144043 C 30.47149467468262 44.90896606445313 31.16085243225098 44.73666763305664 31.84092903137207 44.53037261962891 C 32.52089691162109 44.32411956787109 33.19155120849609 44.08388519287109 33.85165786743164 43.8099479675293 C 34.48959350585938 43.54521560668945 35.11103820800781 43.25193023681641 35.71499633789063 42.93080139160156 C 36.31879806518555 42.6097526550293 36.90509414672852 42.26087951660156 37.47286605834961 41.88485717773438 C 38.04046630859375 41.50895309448242 38.58953475952148 41.10593414306641 39.11907196044922 40.67648315429688 C 39.64842987060547 40.24718856811523 40.15824127197266 39.7914924621582 40.64751815795898 39.31009292602539 C 41.13697814941406 38.82851791381836 41.59967041015625 38.32732009887695 42.03495025634766 37.80751419067383 C 42.47003936767578 37.28791427612305 42.87772369384766 36.74974060058594 43.25733947753906 36.1939697265625 C 43.63678741455078 35.63844680786133 43.98818206787109 35.06537628173828 44.31087112426758 34.47572708129883 C 44.6334114074707 33.88636779785156 44.9272575378418 33.28046417236328 45.19179153442383 32.65902709960938 C 45.46560668945313 32.0157470703125 45.70483779907227 31.36275291442871 45.90926742553711 30.70124244689941 C 46.11357879638672 30.04008483886719 46.28311920166016 29.37042999267578 46.41769027709961 28.6934757232666 C 46.55217742919922 28.01688957214355 46.65172576904297 27.33302307128906 46.71612548828125 26.64306640625 C 46.78049468994141 25.95349311828613 46.80974960327148 25.25784492492676 46.80368423461914 24.55731010437012 C 46.79762649536133 23.8571720123291 46.75639343261719 23.16271018981934 46.68025207519531 22.47508239746094 C 46.60415649414063 21.78784370422363 46.49319839477539 21.1074275970459 46.34765243530273 20.43499565124512 C 46.20219802856445 19.76293754577637 46.02219390869141 19.09884643554688 45.80792617797852 18.44388961791992 C 45.59377670288086 17.78928184509277 45.34539794921875 17.14378929138184 45.06306457519531 16.50856399536133 C 44.79059982299805 15.89553260803223 44.48952865600586 15.29842281341553 44.16055297851563 14.71816635131836 C 43.83173370361328 14.13818359375 43.47502136230469 13.57502365112305 43.09109878540039 13.02961540222168 C 42.70733642578125 12.48444747924805 42.29637908935547 11.95699977874756 41.85891342163086 11.44820213317871 C 41.42162322998047 10.93961620330811 40.95782089233398 10.44964790344238 40.46818161010742 9.979227066040039 C 39.97911071777344 9.509340286254883 39.47041702270508 9.064882278442383 38.94309997558594 8.646464347839355 C 38.41595458984375 8.22818660736084 37.87017822265625 7.835915565490723 37.30672836303711 7.470261573791504 C 36.74345016479492 7.10471773147583 36.16249084472656 6.765759944915771 35.56483459472656 6.454006195068359 C 34.96732711791992 6.142330646514893 34.35309219360352 5.857830047607422 33.72311019897461 5.601123332977295 C 33.07151031494141 5.335615158081055 32.40999984741211 5.102874279022217 31.7397518157959 4.903117179870605 C 31.06961250305176 4.703393459320068 30.39070129394531 4.536630630493164 29.70419311523438 4.403049945831299 C 29.01775932312012 4.269484043121338 28.32369422912598 4.169085025787354 27.62316703796387 4.10207986831665 C 26.92267990112305 4.035077571868896 26.21569061279297 4.001461029052734 25.50337791442871 4.001461029052734 C 24.79106521606445 4.001461029052734 24.08408164978027 4.035077571868896 23.38359260559082 4.10207986831665 C 22.68306541442871 4.169085025787354 21.9889965057373 4.269484043121338 21.30256462097168 4.403049945831299 C 20.61605834960938 4.536631107330322 19.93714714050293 4.703393459320068 19.26700782775879 4.903117656707764 C 18.59675979614258 5.102874755859375 17.93524932861328 5.335615158081055 17.28365516662598 5.601123809814453 C 16.65366554260254 5.857830047607422 16.03943252563477 6.142331123352051 15.44192409515381 6.454006195068359 C 14.84426116943359 6.76576042175293 14.26330661773682 7.104718208312988 13.70002841949463 7.470262050628662 C 13.13658332824707 7.835916042327881 12.59080123901367 8.228187561035156 12.0636625289917 8.646464347839355 C 11.53634071350098 9.064882278442383 11.02765274047852 9.509341239929199 10.53857517242432 9.979227066040039 C 10.0489387512207 10.44964790344238 9.585138320922852 10.93961715698242 9.147846221923828 11.44820213317871 C 8.71037483215332 11.95699977874756 8.299422264099121 12.48444747924805 7.915666580200195 13.02961540222168 C 7.531739711761475 13.57502365112305 7.17502498626709 14.13818359375 6.846203804016113 14.71816635131836 C 6.517227649688721 15.29842281341553 6.216163158416748 15.89553260803223 5.943696022033691 16.50856399536133 C 5.661364078521729 17.14378929138184 5.412981986999512 17.78928184509277 5.198831081390381 18.44388961791992 C 4.984565734863281 19.09884643554688 4.804564476013184 19.76293754577637 4.659106254577637 20.43499565124512 C 4.513567924499512 21.1074275970459 4.402608871459961 21.78784370422363 4.326511383056641 22.47508239746094 C 4.250370979309082 23.16271018981934 4.20913028717041 23.8571720123291 4.203073024749756 24.55731010437012 C 4.197012901306152 25.25784492492676 4.22626781463623 25.95349311828613 4.290632247924805 26.64306640625 C 4.355032444000244 27.33302307128906 4.454582214355469 28.01688957214355 4.589073657989502 28.6934757232666 C 4.72363805770874 29.37042999267578 4.893182754516602 30.04008483886719 5.097497940063477 30.70124244689941 C 5.301921844482422 31.36275291442871 5.541150569915771 32.0157470703125 5.814973831176758 32.65902709960938 C 6.079497337341309 33.28046417236328 6.373351573944092 33.88636779785156 6.695888996124268 34.47572708129883 C 7.018580913543701 35.06537628173828 7.369973659515381 35.63844680786133 7.749419212341309 36.1939697265625 C 8.129035949707031 36.74974060058594 8.536717414855957 37.28791427612305 8.97181224822998 37.80751419067383 C 9.407087326049805 38.32732009887695 9.869784355163574 38.82851791381836 10.35924243927002 39.31009292602539 C 10.84851932525635 39.7914924621582 11.3583345413208 40.24718856811523 11.88768768310547 40.67648315429688 C 12.41722583770752 41.10593414306641 12.96629428863525 41.50895309448242 13.53389549255371 41.88485717773438 C 14.10166931152344 42.26087951660156 14.68795776367188 42.6097526550293 15.2917594909668 42.93080139160156 C 15.89571666717529 43.25193023681641 16.51717185974121 43.54521560668945 17.15510749816895 43.8099479675293 C 17.81520652770996 44.08388519287109 18.48586463928223 44.32411956787109 19.16582679748535 44.53037261962891 C 19.84590911865234 44.73666763305664 20.5352611541748 44.90896606445313 21.23264694213867 45.0470085144043 C 21.93011093139648 45.18507385253906 22.63556861877441 45.28887176513672 23.3477783203125 45.3581657409668 C 24.06001853942871 45.42744827270508 24.77897262573242 45.46222305297852 25.50338172912598 45.46222305297852 M 25.50338172912598 46.42088317871094 C 22.3983039855957 46.42088317871094 19.44170761108398 45.80380630493164 16.75576591491699 44.68867874145508 C 14.07223129272461 43.57455444335938 11.66101360321045 41.96416473388672 9.642535209655762 39.97708511352539 C 7.627288341522217 37.99318313598633 6.004751205444336 35.63500595092773 4.893489837646484 33.02169036865234 C 3.784574508666992 30.41389083862305 3.185238838195801 27.55310821533203 3.212361335754395 24.55731010437012 C 3.239417791366577 21.56878280639648 3.887407779693604 18.72846031188965 5.034227848052979 16.15072822570801 C 6.178642749786377 13.57840347290039 7.8202805519104 11.26649188995361 9.838741302490234 9.328287124633789 C 11.85400867462158 7.393148422241211 14.24612998962402 5.829364776611328 16.89651107788086 4.749842166900635 C 19.54454612731934 3.67127251625061 22.45248413085938 3.07525634765625 25.50337982177734 3.07525634765625 C 28.55427360534668 3.07525634765625 31.46220779418945 3.671272277832031 34.11025238037109 4.749841690063477 C 36.76062774658203 5.82936429977417 39.15275192260742 7.393147468566895 41.16801452636719 9.328285217285156 C 43.18648147583008 11.26649188995361 44.82811737060547 13.57840347290039 45.97253036499023 16.15072822570801 C 47.11935424804688 18.72846031188965 47.76734161376953 21.56878280639648 47.79439544677734 24.55731010437012 C 47.82151794433594 27.55310821533203 47.22218322753906 30.41389083862305 46.11326599121094 33.02169036865234 C 45.00200653076172 35.63500595092773 43.37947463989258 37.99318313598633 41.36423110961914 39.97708511352539 C 39.34574508666992 41.96416473388672 36.93452453613281 43.57455444335938 34.25099563598633 44.68867874145508 C 31.56504821777344 45.80380630493164 28.60845947265625 46.42088317871094 25.50338172912598 46.42088317871094 Z" stroke="none" fill="#f5f5f5"/>
        </g>
        <g id="Ellipse_2" data-name="Ellipse 2" transform="translate(2.277 2.124)" fill="rgba(7,204,255,0.72)">
          <path d="M23.226,2.8a20.711,20.711,0,0,1,7.847,1.531,20.388,20.388,0,0,1,6.433,4.185,19.81,19.81,0,0,1,4.375,6.234A19.383,19.383,0,0,1,42,30.159,19.79,19.79,0,0,1,37.67,36.5a20.374,20.374,0,0,1-6.479,4.3,20.873,20.873,0,0,1-15.929,0,20.374,20.374,0,0,1-6.479-4.3,19.79,19.79,0,0,1-4.329-6.345,19.383,19.383,0,0,1,.117-15.4A19.81,19.81,0,0,1,8.947,8.521a20.388,20.388,0,0,1,6.433-4.185A20.711,20.711,0,0,1,23.226,2.8Z" stroke="none"/>
          <path d="M 23.22641181945801 41.42280197143555 C 23.88280868530273 41.42280197143555 24.53425979614258 41.39126205444336 25.17963790893555 41.32839202880859 C 25.82498168945313 41.26552581787109 26.46421813964844 41.17134475708008 27.09622001647949 41.04606628417969 C 27.72815895080566 40.92080688476563 28.35283279418945 40.76446533203125 28.96912002563477 40.57728576660156 C 29.58531188964844 40.39012908935547 30.19308471679688 40.17214202880859 30.79131126403809 39.92355728149414 C 31.36954689025879 39.68328475952148 31.93286895751953 39.41711044311523 32.48036193847656 39.12564086914063 C 33.02772521972656 38.83423614501953 33.55924606323242 38.51755523681641 34.07401275634766 38.17622756958008 C 34.58863830566406 37.83499908447266 35.08650207519531 37.46913909912109 35.56668853759766 37.07927322387695 C 36.04673004150391 36.68952178955078 36.50909805297852 36.27580261230469 36.95287322998047 35.83871841430664 C 37.39690399169922 35.40139007568359 37.81669616699219 34.94622802734375 38.21165084838867 34.47413635253906 C 38.60646057128906 34.00222778320313 38.97643661499023 33.51342010498047 39.32099151611328 33.00860214233398 C 39.66540908813477 32.50399017333984 39.98441314697266 31.98341178894043 40.27741241455078 31.44775390625 C 40.57029342651367 30.91232872009277 40.83717727661133 30.36185455322266 41.07748794555664 29.79723930358887 C 41.32627868652344 29.21269607543945 41.54371643066406 28.61929321289063 41.72958755493164 28.01811218261719 C 41.91537475585938 27.4172248840332 42.06964492797852 26.80858421325684 42.19218444824219 26.19326972961426 C 42.31466674804688 25.57826232910156 42.40546035766602 24.95659637451172 42.46437454223633 24.3293571472168 C 42.52325439453125 23.70243644714355 42.55029678344727 23.06995964050293 42.54529571533203 22.43299674987793 C 42.54030227661133 21.79636192321777 42.50337982177734 21.16486358642578 42.43478393554688 20.53954887390137 C 42.3662223815918 19.91455841064453 42.26601409912109 19.29574394226074 42.13442993164063 18.68417358398438 C 42.00290679931641 18.07290458679199 41.84001541137695 17.46886253356934 41.64602279663086 16.87310409545898 C 41.45212554931641 16.27763175964355 41.22714996337891 15.69042682647705 40.97134017944336 15.1125431060791 C 40.72447967529297 14.55487442016602 40.4516487121582 14.01166820526123 40.15346145629883 13.48377132415771 C 39.85540390014648 12.95610237121582 39.53201675415039 12.44371795654297 39.18390655517578 11.94746685028076 C 38.8359375 11.45141696929932 38.4632682800293 10.97147464752197 38.06650161743164 10.50848579406738 C 37.66988754272461 10.04567337036133 37.24918365478516 9.599789619445801 36.80501174926758 9.17168140411377 C 36.36139678955078 8.744115829467773 35.89996337890625 8.339675903320313 35.42160415649414 7.95892333984375 C 34.94338989257813 7.578287601470947 34.4482421875 7.221308708190918 33.93704223632813 6.888547420501709 C 33.42598724365234 6.555877208709717 32.89886474609375 6.247397422790527 32.35656356811523 5.963672161102295 C 31.81439018249512 5.680012226104736 31.25701904296875 5.421082973480225 30.68534278869629 5.187451362609863 C 30.09412384033203 4.9458327293396 29.4938907623291 4.734031677246094 28.88570976257324 4.552243709564209 C 28.27761840820313 4.370482444763184 27.66155815124512 4.218717098236084 27.03858375549316 4.097148418426514 C 26.41567420959473 3.975592136383057 25.78582763671875 3.884220361709595 25.15011024475098 3.823239088058472 C 24.51442337036133 3.762260675430298 23.87283706665039 3.731666326522827 23.22641181945801 3.731666326522827 C 22.57998847961426 3.731666326522827 21.93840026855469 3.762260675430298 21.30271530151367 3.823239088058472 C 20.6669979095459 3.884220361709595 20.03715324401855 3.975592136383057 19.41424179077148 4.097148895263672 C 18.79127311706543 4.218717098236084 18.17520523071289 4.370482444763184 17.56711578369141 4.552243709564209 C 16.95893669128418 4.734031677246094 16.35870361328125 4.9458327293396 15.76748847961426 5.187451362609863 C 15.19580554962158 5.421083450317383 14.63844013214111 5.680012226104736 14.09626579284668 5.963672161102295 C 13.55396747589111 6.247397899627686 13.02684497833252 6.555877208709717 12.51578330993652 6.888547420501709 C 12.00458526611328 7.221308708190918 11.50943565368652 7.578288078308105 11.03122329711914 7.95892333984375 C 10.55286121368408 8.339675903320313 10.09142971038818 8.744115829467773 9.647815704345703 9.171682357788086 C 9.203641891479492 9.599789619445801 8.782940864562988 10.04567337036133 8.386324882507324 10.50848579406738 C 7.989560604095459 10.97147464752197 7.616885185241699 11.45141696929932 7.268917560577393 11.94746685028076 C 6.920808792114258 12.44371795654297 6.597417831420898 12.95610237121582 6.299362659454346 13.48377132415771 C 6.001179218292236 14.01166820526123 5.728346347808838 14.55487442016602 5.481485843658447 15.1125431060791 C 5.225677967071533 15.69042682647705 5.0007004737854 16.27763175964355 4.806801319122314 16.87310409545898 C 4.612810134887695 17.46886253356934 4.449924945831299 18.07290458679199 4.318398952484131 18.68417358398438 C 4.186808109283447 19.29574394226074 4.086605072021484 19.91455841064453 4.018043518066406 20.53954887390137 C 3.949447631835938 21.16486358642578 3.912524461746216 21.79636192321777 3.90752911567688 22.43299674987793 C 3.902531385421753 23.06995964050293 3.929569482803345 23.70243644714355 3.988454580307007 24.3293571472168 C 4.047369956970215 24.95659637451172 4.138163566589355 25.57826232910156 4.260645389556885 26.19326972961426 C 4.383187770843506 26.80858421325684 4.537449359893799 27.4172248840332 4.723235607147217 28.01811218261719 C 4.909112930297852 28.61929321289063 5.126544952392578 29.21269607543945 5.375335693359375 29.79723930358887 C 5.615647315979004 30.36185455322266 5.882535457611084 30.91232872009277 6.175410747528076 31.44775390625 C 6.468413352966309 31.98341178894043 6.787417888641357 32.50399017333984 7.131832599639893 33.00860214233398 C 7.476388931274414 33.51342010498047 7.846367835998535 34.00222778320313 8.24117374420166 34.47413635253906 C 8.636130332946777 34.94622802734375 9.05592155456543 35.40139007568359 9.499950408935547 35.83871841430664 C 9.943732261657715 36.27580261230469 10.40609359741211 36.68952178955078 10.88613414764404 37.07927322387695 C 11.36632537841797 37.46913909912109 11.8641881942749 37.83499908447266 12.37881278991699 38.17622756958008 C 12.89358043670654 38.51755523681641 13.42510318756104 38.83423614501953 13.97246551513672 39.12564086914063 C 14.51995754241943 39.41711044311523 15.08327770233154 39.68328475952148 15.66151332855225 39.92355728149414 C 16.25974273681641 40.17214202880859 16.86751556396484 40.39012908935547 17.48370552062988 40.57728576660156 C 18.09998893737793 40.76446533203125 18.72466468811035 40.92080688476563 19.35660171508789 41.04606628417969 C 19.98860740661621 41.17134475708008 20.62784576416016 41.26552581787109 21.27318954467773 41.32839202880859 C 21.9185676574707 41.39126205444336 22.57001686096191 41.42280197143555 23.22641181945801 41.42280197143555 M 23.22641372680664 42.37998580932617 C 20.3995246887207 42.37998580932617 17.70770072937012 41.81742858886719 15.26202487945557 40.80075454711914 C 12.81835556030273 39.784912109375 10.62222576141357 38.31644058227539 8.783285140991211 36.5042610168457 C 6.947030067443848 34.69471740722656 5.467941761016846 32.54346084594727 4.454123497009277 30.15903472900391 C 3.442258596420288 27.77920150756836 2.894256591796875 25.16800117492676 2.91681694984436 22.43299674987793 C 2.939327716827393 19.70405387878418 3.527804374694824 17.10990333557129 4.571200847625732 14.75514030456543 C 5.61259937286377 12.40488719940186 7.107577323913574 10.29220104217529 8.946505546569824 8.520752906799316 C 10.78277492523193 6.751863956451416 12.96301937103271 5.322250366210938 15.37910842895508 4.33525562286377 C 17.79325103759766 3.349058389663696 20.44459915161133 2.804054498672485 23.22641372680664 2.804054498672485 C 26.00822830200195 2.804054498672485 28.65957832336426 3.349058151245117 31.07371711730957 4.335256099700928 C 33.48980712890625 5.322250366210938 35.67004776000977 6.751863479614258 37.50631713867188 8.520752906799316 C 39.34524536132813 10.29220104217529 40.84022521972656 12.40488815307617 41.88161849975586 14.75514125823975 C 42.92501831054688 17.10990333557129 43.51350021362305 19.70405387878418 43.53600692749023 22.43299674987793 C 43.55856704711914 25.16800117492676 43.01056671142578 27.77920150756836 41.99869918823242 30.15903472900391 C 40.98488616943359 32.54346084594727 39.50579452514648 34.69471740722656 37.66954040527344 36.5042610168457 C 35.83059692382813 38.31644058227539 33.63446426391602 39.784912109375 31.19079971313477 40.80075454711914 C 28.7451286315918 41.81742858886719 26.05330276489258 42.37998580932617 23.22641372680664 42.37998580932617 Z" stroke="none" fill="#f5f5f5"/>
        </g>
        <g id="Path_1" data-name="Path 1" transform="translate(12.71 4.663)" fill="rgba(7,204,255,0.72)">
          <path d="M2.458,4.018l8.771-1.9,2.092,27.2,19.835-3.017L8.246,35.54Z" stroke="none"/>
          <path d="M 9.018245697021484 34.23206329345703 L 24.08914756774902 28.64928817749023 L 13.47749519348145 30.26387786865234 L 12.40782070159912 30.4266242980957 L 12.32891654968262 29.39521980285645 L 10.33019256591797 3.268996953964233 L 3.588180541992188 4.727148056030273 L 9.018245697021484 34.23206329345703 M 8.246402740478516 35.54021835327148 L 2.457938194274902 4.017903327941895 L 11.22861766815186 2.121734380722046 L 13.32078075408936 29.32588577270508 L 33.15583801269531 26.30910110473633 L 8.246402740478516 35.54021835327148 Z" stroke="none" fill="#f5f5f5"/>
        </g>
      </g>
    </g>
  </g>
</svg>
