<svg xmlns="http://www.w3.org/2000/svg" width="47.501" height="46.35" viewBox="0 0 47.501 46.35">
  <g id="Group_8" data-name="Group 8" transform="matrix(0.998, 0.07, -0.07, 0.998, -575.91, -480.099)" style="isolation: isolate">
    <g id="Group_2" data-name="Group 2">
      <g id="Group_1" data-name="Group 1" transform="translate(607.997 435.443)">
        <g id="Ellipse_1" data-name="Ellipse 1" fill="rgba(2,125,31,0.72)">
          <path d="M25.5,3.075A22.773,22.773,0,0,1,34.11,4.75a22.382,22.382,0,0,1,7.058,4.578,21.7,21.7,0,0,1,4.8,6.822,21.188,21.188,0,0,1,.141,16.871,21.672,21.672,0,0,1-4.749,6.955,22.364,22.364,0,0,1-7.113,4.712,22.954,22.954,0,0,1-17.5,0,22.364,22.364,0,0,1-7.113-4.712,21.672,21.672,0,0,1-4.749-6.955,21.188,21.188,0,0,1,.141-16.871,21.7,21.7,0,0,1,4.8-6.822A22.382,22.382,0,0,1,16.9,4.75,22.773,22.773,0,0,1,25.5,3.075Z" stroke="none"/>
          <path d="M 25.50332069396973 45.46221542358398 C 26.22772979736328 45.46221542358398 26.94668006896973 45.42744445800781 27.6589241027832 45.35815811157227 C 28.37112808227539 45.28886795043945 29.07658576965332 45.18506622314453 29.77404975891113 45.04700469970703 C 30.47143363952637 44.90895843505859 31.16079139709473 44.73666000366211 31.84086799621582 44.53036880493164 C 32.52083587646484 44.32411193847656 33.19149017333984 44.08388137817383 33.85159683227539 43.80994415283203 C 34.48953247070313 43.54521179199219 35.11097717285156 43.25192642211914 35.71493530273438 42.9307975769043 C 36.3187370300293 42.60974502563477 36.90503311157227 42.2608757019043 37.47280502319336 41.88485336303711 C 38.0404052734375 41.50894546508789 38.58947372436523 41.10593032836914 39.11901092529297 40.67647933959961 C 39.64836883544922 40.2471809387207 40.15818023681641 39.79148864746094 40.64745712280273 39.31008529663086 C 41.13691711425781 38.82851028442383 41.599609375 38.32731628417969 42.03488922119141 37.80751037597656 C 42.46997833251953 37.28791046142578 42.87766265869141 36.74973678588867 43.25727844238281 36.19396591186523 C 43.63672637939453 35.63844299316406 43.98812484741211 35.06537246704102 44.31081008911133 34.47572326660156 C 44.63335418701172 33.88636016845703 44.92720031738281 33.28046035766602 45.19173049926758 32.65902328491211 C 45.46554565429688 32.01574325561523 45.70477676391602 31.36274909973145 45.90920639038086 30.70123863220215 C 46.11351776123047 30.04008102416992 46.28305816650391 29.37042617797852 46.41762924194336 28.69347381591797 C 46.55211639404297 28.01688575744629 46.65166473388672 27.3330192565918 46.71606826782227 26.64306259155273 C 46.78043365478516 25.9534912109375 46.80968856811523 25.25784301757813 46.80362319946289 24.55730628967285 C 46.79756546020508 23.85717010498047 46.75633239746094 23.1627082824707 46.68019104003906 22.4750804901123 C 46.60409545898438 21.78783988952637 46.49313735961914 21.10742378234863 46.34759140014648 20.43499374389648 C 46.2021369934082 19.7629337310791 46.02213287353516 19.09884452819824 45.80786514282227 18.44388580322266 C 45.59371566772461 17.78927993774414 45.3453369140625 17.14378547668457 45.06300354003906 16.5085620880127 C 44.7905387878418 15.89553260803223 44.48947143554688 15.29842090606689 44.16049194335938 14.71816444396973 C 43.8316764831543 14.13818264007568 43.47496032714844 13.57502174377441 43.09103775024414 13.02961444854736 C 42.707275390625 12.48444652557373 42.29631805419922 11.95699882507324 41.85885238647461 11.44820117950439 C 41.42156219482422 10.93961524963379 40.95775985717773 10.44964694976807 40.46812057495117 9.979225158691406 C 39.97904968261719 9.509340286254883 39.47035598754883 9.064881324768066 38.94304275512695 8.646463394165039 C 38.4158935546875 8.228185653686523 37.8701171875 7.835915088653564 37.30666732788086 7.470261096954346 C 36.74338912963867 7.104717254638672 36.16243362426758 6.765759944915771 35.56477355957031 6.454005241394043 C 34.96726608276367 6.142330169677734 34.35303115844727 5.857829093933105 33.72304916381836 5.601123332977295 C 33.07144927978516 5.335614681243896 32.40993881225586 5.102874279022217 31.73969268798828 4.903117179870605 C 31.06955146789551 4.703393459320068 30.3906421661377 4.536630630493164 29.70413208007813 4.403049468994141 C 29.01769828796387 4.26948356628418 28.32363510131836 4.169085025787354 27.62310600280762 4.102079391479492 C 26.92262077331543 4.035077571868896 26.21563148498535 4.001460552215576 25.50331878662109 4.001460552215576 C 24.79100608825684 4.001460552215576 24.08402061462402 4.035077571868896 23.38353157043457 4.10207986831665 C 22.68300437927246 4.169085025787354 21.98893547058105 4.26948356628418 21.30250549316406 4.403049945831299 C 20.61599731445313 4.536630630493164 19.93708801269531 4.703393459320068 19.26694679260254 4.903117179870605 C 18.59669876098633 5.102874279022217 17.93518829345703 5.335615158081055 17.28359413146973 5.601123332977295 C 16.65360450744629 5.857829570770264 16.03937149047852 6.142330169677734 15.44186401367188 6.454005718231201 C 14.84420108795166 6.765759944915771 14.26324653625488 7.10471773147583 13.69996929168701 7.470261573791504 C 13.13652324676514 7.835915565490723 12.59074115753174 8.228185653686523 12.06360244750977 8.646464347839355 C 11.53628063201904 9.064882278442383 11.02759265899658 9.509340286254883 10.53851509094238 9.979226112365723 C 10.04887866973877 10.44964790344238 9.585078239440918 10.93961524963379 9.147786140441895 11.44820117950439 C 8.710314750671387 11.95699882507324 8.299362182617188 12.48444652557373 7.915606498718262 13.02961444854736 C 7.531679153442383 13.57502174377441 7.174964427947998 14.13818264007568 6.84614372253418 14.71816444396973 C 6.517167091369629 15.29842090606689 6.216102600097656 15.89553260803223 5.9436354637146 16.5085620880127 C 5.661303520202637 17.14378547668457 5.412921905517578 17.78927993774414 5.198770999908447 18.44388580322266 C 4.984505653381348 19.09884452819824 4.804503917694092 19.7629337310791 4.659045696258545 20.43499374389648 C 4.51350736618042 21.10742378234863 4.402548313140869 21.78783988952637 4.326450824737549 22.4750804901123 C 4.250310897827148 23.1627082824707 4.209069728851318 23.85717010498047 4.203012943267822 24.55730628967285 C 4.196952342987061 25.25784301757813 4.226207256317139 25.9534912109375 4.290571689605713 26.64306259155273 C 4.354971885681152 27.3330192565918 4.454521656036377 28.01688575744629 4.58901309967041 28.69347381591797 C 4.723577499389648 29.37042617797852 4.89312219619751 30.04008102416992 5.097437381744385 30.70123863220215 C 5.30186128616333 31.36274909973145 5.54109001159668 32.01574325561523 5.814913272857666 32.65902328491211 C 6.079436779022217 33.28046035766602 6.373291015625 33.88636016845703 6.695827960968018 34.47572326660156 C 7.018520355224609 35.06537246704102 7.369913101196289 35.63844299316406 7.749358654022217 36.19396591186523 C 8.128974914550781 36.74973678588867 8.536656379699707 37.28791046142578 8.97175121307373 37.80751037597656 C 9.407026290893555 38.32731628417969 9.869723320007324 38.82851028442383 10.35918235778809 39.31008529663086 C 10.84845924377441 39.79148864746094 11.35827350616455 40.2471809387207 11.88762760162354 40.67647933959961 C 12.41716480255127 41.10593032836914 12.966233253479 41.50894546508789 13.53383445739746 41.88485336303711 C 14.10160827636719 42.2608757019043 14.68789672851563 42.60974502563477 15.29169845581055 42.9307975769043 C 15.89565563201904 43.25192642211914 16.51711082458496 43.54521179199219 17.1550464630127 43.80994415283203 C 17.81514549255371 44.08388137817383 18.48580360412598 44.32411193847656 19.1657657623291 44.53036880493164 C 19.84584808349609 44.73666000366211 20.53520011901855 44.90895843505859 21.23258590698242 45.04700469970703 C 21.93004989624023 45.18506622314453 22.63550758361816 45.28886795043945 23.34771728515625 45.35815811157227 C 24.05995750427246 45.42744445800781 24.77891159057617 45.46221542358398 25.50332069396973 45.46221542358398 M 25.50332069396973 46.42087554931641 C 22.39824295043945 46.42087554931641 19.44164657592773 45.80379867553711 16.75570487976074 44.68867492675781 C 14.07217025756836 43.57455062866211 11.6609525680542 41.96416091918945 9.642474174499512 39.97707748413086 C 7.627227783203125 37.99317932128906 6.004690647125244 35.63500213623047 4.893429279327393 33.02168273925781 C 3.7845139503479 30.41388702392578 3.185178279876709 27.55310440063477 3.212300777435303 24.55730628967285 C 3.239357471466064 21.56878089904785 3.887347459793091 18.72845840454102 5.034167289733887 16.15072822570801 C 6.178582668304443 13.57840251922607 7.820220470428467 11.26648998260498 9.838681221008301 9.328285217285156 C 11.85394859313965 7.393147945404053 14.24607086181641 5.82936429977417 16.89645195007324 4.749842166900635 C 19.54448699951172 3.671272277832031 22.45242500305176 3.07525634765625 25.50331878662109 3.07525634765625 C 28.55421447753906 3.07525634765625 31.46214866638184 3.671272277832031 34.11019134521484 4.749841690063477 C 36.76057052612305 5.82936429977417 39.15269088745117 7.393146991729736 41.16795349121094 9.328285217285156 C 43.18642044067383 11.26648998260498 44.82805633544922 13.57840251922607 45.97246932983398 16.15072822570801 C 47.11929321289063 18.72845840454102 47.76728057861328 21.56878089904785 47.79433822631836 24.55730628967285 C 47.82145690917969 27.55310440063477 47.22212219238281 30.41388702392578 46.11320495605469 33.02168273925781 C 45.00194931030273 35.63500213623047 43.37941360473633 37.99317932128906 41.36417007446289 39.97707748413086 C 39.34568405151367 41.96416091918945 36.93446731567383 43.57455062866211 34.25093460083008 44.68867492675781 C 31.56498718261719 45.80379867553711 28.6083984375 46.42087554931641 25.50332069396973 46.42087554931641 Z" stroke="none" fill="#f5f5f5"/>
        </g>
        <g id="Ellipse_2" data-name="Ellipse 2" transform="translate(2.277 2.124)" fill="rgba(2,125,31,0.72)">
          <path d="M23.227,2.8a20.711,20.711,0,0,1,7.847,1.531,20.388,20.388,0,0,1,6.433,4.185,19.81,19.81,0,0,1,4.375,6.234A19.383,19.383,0,0,1,42,30.159,19.79,19.79,0,0,1,37.67,36.5a20.374,20.374,0,0,1-6.479,4.3,20.873,20.873,0,0,1-15.929,0,20.374,20.374,0,0,1-6.479-4.3,19.79,19.79,0,0,1-4.329-6.345,19.383,19.383,0,0,1,.117-15.4A19.81,19.81,0,0,1,8.947,8.521a20.388,20.388,0,0,1,6.433-4.185A20.711,20.711,0,0,1,23.227,2.8Z" stroke="none"/>
          <path d="M 23.22665405273438 41.42277145385742 C 23.88304901123047 41.42277145385742 24.53450202941895 41.39123153686523 25.17988014221191 41.32836151123047 C 25.82522392272949 41.26549530029297 26.4644603729248 41.17131423950195 27.09646224975586 41.04603576660156 C 27.72840118408203 40.9207763671875 28.35307502746582 40.76443481445313 28.9693603515625 40.57725524902344 C 29.5855541229248 40.39009857177734 30.19332504272461 40.17211151123047 30.79155540466309 39.92352676391602 C 31.36978912353516 39.68325424194336 31.93311309814453 39.41707992553711 32.4806022644043 39.1256103515625 C 33.02796936035156 38.83420562744141 33.55948257446289 38.51752471923828 34.07425308227539 38.17620086669922 C 34.5888786315918 37.83496856689453 35.08673858642578 37.46910858154297 35.56693267822266 37.07924270629883 C 36.04697036743164 36.68949127197266 36.50933837890625 36.27577209472656 36.9531135559082 35.83868789672852 C 37.39714050292969 35.40135955810547 37.81693649291992 34.94620132446289 38.21189117431641 34.47410583496094 C 38.60669708251953 34.002197265625 38.9766731262207 33.51338958740234 39.32122802734375 33.00857162475586 C 39.6656494140625 32.50396347045898 39.98464965820313 31.98338317871094 40.27765274047852 31.44772338867188 C 40.57052993774414 30.91229820251465 40.8374137878418 30.36182594299316 41.07772827148438 29.79720878601074 C 41.32652282714844 29.21266555786133 41.54395294189453 28.6192626953125 41.72983169555664 28.01808166503906 C 41.91561889648438 27.41719627380371 42.06988525390625 26.80855369567871 42.19242477416992 26.19323921203613 C 42.31490325927734 25.57823181152344 42.40570068359375 24.95656585693359 42.4646110534668 24.32932662963867 C 42.52349472045898 23.70240783691406 42.550537109375 23.0699291229248 42.54553604125977 22.4329662322998 C 42.54054260253906 21.79633331298828 42.50362396240234 21.16483306884766 42.43502426147461 20.53952026367188 C 42.36646270751953 19.91452789306641 42.26625823974609 19.29571342468262 42.13467025756836 18.68414306640625 C 42.00314712524414 18.0728759765625 41.84025573730469 17.46883201599121 41.64626312255859 16.87307357788086 C 41.45236968994141 16.27760124206543 41.22739028930664 15.69039726257324 40.97157669067383 15.11251354217529 C 40.7247200012207 14.55484485626221 40.4518928527832 14.01163768768311 40.15370178222656 13.48374176025391 C 39.85564422607422 12.95607280731201 39.53225708007813 12.44368743896484 39.18414688110352 11.94743633270264 C 38.83617782592773 11.45138740539551 38.46350860595703 10.97144508361816 38.06674194335938 10.50845623016357 C 37.67012786865234 10.04564380645752 37.24942398071289 9.599759101867676 36.80525207519531 9.171651840209961 C 36.36163711547852 8.744085311889648 35.90020370483398 8.339646339416504 35.42184448242188 7.958893299102783 C 34.94363021850586 7.57825756072998 34.44848251342773 7.221278667449951 33.93728256225586 6.888517379760742 C 33.42622756958008 6.55584716796875 32.89910507202148 6.247367382049561 32.35680389404297 5.963642120361328 C 31.81463050842285 5.67998218536377 31.25725936889648 5.421052932739258 30.68558120727539 5.187421321868896 C 30.09436416625977 4.945802688598633 29.4941291809082 4.734001636505127 28.88595008850098 4.552213668823242 C 28.27785873413086 4.370452404022217 27.66179656982422 4.218687057495117 27.0388240814209 4.097118377685547 C 26.41591453552246 3.97556209564209 25.78606796264648 3.884190320968628 25.15035057067871 3.823209047317505 C 24.51466369628906 3.762230634689331 23.87307739257813 3.731636524200439 23.22665214538574 3.731636524200439 C 22.58022880554199 3.731636524200439 21.93864059448242 3.762230634689331 21.30295562744141 3.823209047317505 C 20.66723823547363 3.884190320968628 20.03739356994629 3.97556209564209 19.41448211669922 4.097118854522705 C 18.79151153564453 4.218687057495117 18.17544555664063 4.370452404022217 17.56735610961914 4.552213668823242 C 16.95917701721191 4.734001636505127 16.35894393920898 4.945802688598633 15.76772880554199 5.187421321868896 C 15.19604587554932 5.421053409576416 14.63867950439453 5.67998218536377 14.09650611877441 5.963642120361328 C 13.55420780181885 6.247367858886719 13.02708530426025 6.55584716796875 12.51602363586426 6.888517379760742 C 12.00482559204102 7.221278667449951 11.50967597961426 7.578258037567139 11.03146362304688 7.958893299102783 C 10.55310153961182 8.339646339416504 10.09167003631592 8.744085311889648 9.648056030273438 9.171652793884277 C 9.203882217407227 9.599759101867676 8.783182144165039 10.04564380645752 8.386565208435059 10.50845623016357 C 7.989799976348877 10.97144508361816 7.617125511169434 11.45138740539551 7.269157886505127 11.94743633270264 C 6.921049118041992 12.44368743896484 6.597657680511475 12.95607280731201 6.299602508544922 13.48374176025391 C 6.001420021057129 14.01163768768311 5.728586673736572 14.55484485626221 5.48172664642334 15.11251354217529 C 5.225918769836426 15.69039726257324 5.000940799713135 16.27760124206543 4.807042121887207 16.87307357788086 C 4.61305046081543 17.46883201599121 4.450165748596191 18.0728759765625 4.318639755249023 18.68414306640625 C 4.187048435211182 19.29571342468262 4.086845397949219 19.91452789306641 4.018284320831299 20.53952026367188 C 3.94968843460083 21.16483306884766 3.912765502929688 21.79633331298828 3.907770156860352 22.4329662322998 C 3.902772426605225 23.0699291229248 3.929810523986816 23.70240783691406 3.988695621490479 24.32932662963867 C 4.047610759735107 24.95656585693359 4.138404369354248 25.57823181152344 4.260886192321777 26.19323921203613 C 4.383429050445557 26.80855369567871 4.537690162658691 27.41719627380371 4.723476886749268 28.01808166503906 C 4.909354209899902 28.6192626953125 5.126785755157471 29.21266555786133 5.375577449798584 29.79720878601074 C 5.615888595581055 30.36182594299316 5.882776737213135 30.91229820251465 6.175652027130127 31.44772338867188 C 6.468654632568359 31.98338317871094 6.787659168243408 32.50396347045898 7.132073879241943 33.00857162475586 C 7.476630210876465 33.51338958740234 7.846609115600586 34.002197265625 8.241415023803711 34.47410583496094 C 8.636371612548828 34.94620132446289 9.05616283416748 35.40135955810547 9.500192642211914 35.83868789672852 C 9.943974494934082 36.27577209472656 10.40633583068848 36.68949127197266 10.88637542724609 37.07924270629883 C 11.36656761169434 37.46910858154297 11.86442947387695 37.83496856689453 12.37905406951904 38.17620086669922 C 12.89382266998291 38.51752471923828 13.42534446716309 38.83420562744141 13.97270774841309 39.1256103515625 C 14.52020072937012 39.41707992553711 15.08351993560791 39.68325424194336 15.66175556182861 39.92352676391602 C 16.25998497009277 40.17211151123047 16.86775779724121 40.39009857177734 17.48394775390625 40.57725524902344 C 18.1002311706543 40.76443481445313 18.72490692138672 40.9207763671875 19.35684394836426 41.04603576660156 C 19.98884963989258 41.17131423950195 20.62808609008789 41.26549530029297 21.2734317779541 41.32836151123047 C 21.91880989074707 41.39123153686523 22.57025909423828 41.42277145385742 23.22665405273438 41.42277145385742 M 23.22665596008301 42.37995529174805 C 20.39976692199707 42.37995529174805 17.70793914794922 41.81739807128906 15.26226711273193 40.80072402954102 C 12.8185977935791 39.78488159179688 10.62246704101563 38.31641006469727 8.783526420593262 36.50423049926758 C 6.947271823883057 34.69468688964844 5.468183040618896 32.54343032836914 4.454364776611328 30.15900421142578 C 3.44249963760376 27.77917098999023 2.894497871398926 25.16797065734863 2.917057991027832 22.4329662322998 C 2.939568281173706 19.70402336120605 3.528044939041138 17.10987281799316 4.571441173553467 14.7551097869873 C 5.612840175628662 12.40485668182373 7.107817649841309 10.29217052459717 8.946745872497559 8.520722389221191 C 10.78301525115967 6.751833915710449 12.96325969696045 5.322220325469971 15.3793478012085 4.335225582122803 C 17.79349136352539 3.349028348922729 20.44483757019043 2.804024457931519 23.22665405273438 2.804024457931519 C 26.00846862792969 2.804024457931519 28.65981674194336 3.34902811050415 31.07395553588867 4.335226058959961 C 33.49004745483398 5.322220325469971 35.6702880859375 6.751833438873291 37.50655746459961 8.520722389221191 C 39.34548568725586 10.29217052459717 40.8404655456543 12.40485763549805 41.88186264038086 14.75511074066162 C 42.92525863647461 17.10987281799316 43.51374435424805 19.70402336120605 43.53625106811523 22.4329662322998 C 43.55881118774414 25.16797065734863 43.01080322265625 27.77917098999023 41.99893951416016 30.15900421142578 C 40.98512649536133 32.54343032836914 39.50603485107422 34.69468688964844 37.66978073120117 36.50423049926758 C 35.83083343505859 38.31641006469727 33.63470840454102 39.78488159179688 31.19104194641113 40.80072402954102 C 28.74537086486816 41.81739807128906 26.05354499816895 42.37995529174805 23.22665596008301 42.37995529174805 Z" stroke="none" fill="#f5f5f5"/>
        </g>
        <g id="Path_1" data-name="Path 1" transform="translate(12.71 4.663)" fill="rgba(2,125,31,0.72)">
          <path d="M2.458,4.018l8.771-1.9,2.092,27.2,19.835-3.017L8.247,35.54Z" stroke="none"/>
          <path d="M 9.018367767333984 34.23208618164063 L 24.08926773071289 28.64931488037109 L 13.47761726379395 30.2639045715332 L 12.4079418182373 30.42665100097656 L 12.32903861999512 29.3952465057373 L 10.33031272888184 3.2690269947052 L 3.588300704956055 4.727177619934082 L 9.018367767333984 34.23208618164063 M 8.246523857116699 35.54024505615234 L 2.45805835723877 4.017933368682861 L 11.22873783111572 2.121764659881592 L 13.32090282440186 29.32591438293457 L 33.15596008300781 26.30912780761719 L 8.246523857116699 35.54024505615234 Z" stroke="none" fill="#f5f5f5"/>
        </g>
      </g>
    </g>
  </g>
</svg>
