<svg xmlns="http://www.w3.org/2000/svg" width="100" height="100" viewBox="0 0 100 100">
  <g id="Group_6" data-name="Group 6" transform="translate(-658 -442)">
    <rect id="Rectangle_2" data-name="Rectangle 2" width="100" height="100" transform="translate(658 442)" fill="none"/>
    <g id="Group_2" data-name="Group 2" transform="translate(0.399 0.551)">
      <g id="Ellipse_2" data-name="Ellipse 2" transform="matrix(0.999, -0.035, 0.035, 0.999, 672.48, 498.917)" fill="#0abc21" stroke="#0abc21" stroke-width="1">
        <ellipse cx="35" cy="15.5" rx="35" ry="15.5" stroke="none"/>
        <ellipse cx="35" cy="15.5" rx="34.5" ry="15" fill="none"/>
      </g>
      <g id="Path_2" data-name="Path 2" transform="translate(691 453)" fill="#0abc21">
        <path d="M 26.72386741638184 70.09995269775391 C 24.94787788391113 70.09995269775391 22.99102210998535 69.64537048339844 20.90767860412598 68.74884796142578 C 18.66780090332031 67.78495788574219 16.27971076965332 66.30799102783203 13.80973339080811 64.35897064208984 C 5.389155387878418 57.71440505981445 1.622488856315613 54.2028923034668 -0.08794444799423218 51.40269470214844 C -1.775955557823181 48.63920593261719 -1.364488840103149 46.58180618286133 -0.6827889084815979 43.17323684692383 C -0.155822217464447 40.53832626342773 0.5 37.25909423828125 0.5 32.37573623657227 C 0.5 23.79239273071289 1.89056670665741 15.73048210144043 4.415544509887695 9.675071716308594 C 5.630589008331299 6.761137962341309 7.038866519927979 4.480093479156494 8.601255416870117 2.895271301269531 C 10.16814422607422 1.305893540382385 11.81632232666016 0.5000046491622925 13.5 0.5000046491622925 C 14.47316646575928 0.5000046491622925 15.07034397125244 0.6473046541213989 15.37936687469482 0.963571310043335 C 15.85874462127686 1.454171299934387 15.83355522155762 2.541704654693604 15.79543304443359 4.187882423400879 C 15.68496704101563 8.957448959350586 15.47936630249023 17.83542633056641 26.59987831115723 32.67557144165039 C 31.01835632324219 38.57197189331055 34.04935455322266 44.934814453125 35.36518859863281 51.07625961303711 C 36.55665588378906 56.63720321655273 36.24280166625977 61.6387939453125 34.4814453125 65.15969085693359 C 32.86463165283203 68.39163970947266 30.18210029602051 70.09995269775391 26.72386741638184 70.09995269775391 Z" stroke="none"/>
        <path d="M 13.5 0.9999923706054688 C 11.95513343811035 0.9999923706054688 10.42675590515137 1.755760192871094 8.95732307434082 3.246292114257813 C 7.44011116027832 4.785270690917969 6.067310333251953 7.012969970703125 4.877033233642578 9.86749267578125 C 2.376888275146484 15.86334991455078 1 23.85692596435547 1 32.37573623657227 C 1 37.3086051940918 0.3387870788574219 40.61474990844727 -0.1925010681152344 43.27128219604492 C -0.8726463317871094 46.67212677001953 -1.247310638427734 48.54547119140625 0.3387565612792969 51.14205169677734 C 1.993667602539063 53.85136032104492 5.857421875 57.44699096679688 14.11945533752441 63.96644973754883 C 18.79001045227051 67.65191650390625 23.14854431152344 69.59994506835938 26.7238655090332 69.59994506835938 C 29.97998809814453 69.59994506835938 32.50788879394531 67.9871826171875 34.03426742553711 64.93598937988281 C 35.74501037597656 61.51627349853516 36.04404449462891 56.63132476806641 34.87628936767578 51.18100738525391 C 33.57548904418945 45.10976028442383 30.5751895904541 38.81436157226563 26.19975662231445 32.97540283203125 C 14.97548866271973 17.99681854248047 15.18370056152344 9.006317138671875 15.29556655883789 4.176292419433594 C 15.3269214630127 2.822349548339844 15.35400009155273 1.653038024902344 15.02174377441406 1.312995910644531 C 14.88222312927246 1.170204162597656 14.50495529174805 0.9999923706054688 13.5 0.9999923706054688 M 13.5 -7.62939453125e-06 C 20.95584487915039 -7.62939453125e-06 9 8.355026245117188 27 32.37573623657227 C 40.8570556640625 50.86775588989258 38.71053695678711 70.59994506835938 26.72386360168457 70.59994506835938 C 23.14012145996094 70.59994506835938 18.67868041992188 68.83790588378906 13.5 64.75148010253906 C -9 46.99703979492188 0 50.25637054443359 0 32.37573623657227 C 0 14.4951171875 6.044155120849609 -7.62939453125e-06 13.5 -7.62939453125e-06 Z" stroke="none" fill="#0abc21"/>
      </g>
    </g>
  </g>
</svg>
