<svg xmlns="http://www.w3.org/2000/svg" width="47.5" height="46.35" viewBox="0 0 47.5 46.35">
  <g id="Group_10" data-name="Group 10" transform="matrix(0.998, 0.07, -0.07, 0.998, -575.91, -480.099)" style="isolation: isolate">
    <g id="Group_2" data-name="Group 2">
      <g id="Group_1" data-name="Group 1" transform="translate(607.997 435.443)">
        <g id="Ellipse_1" data-name="Ellipse 1" transform="translate(0 0)" fill="rgba(246,8,8,0.95)">
          <path d="M25.5,3.075A22.773,22.773,0,0,1,34.11,4.75a22.382,22.382,0,0,1,7.058,4.578,21.7,21.7,0,0,1,4.8,6.822,21.188,21.188,0,0,1,.141,16.871,21.672,21.672,0,0,1-4.749,6.955,22.364,22.364,0,0,1-7.113,4.712,22.954,22.954,0,0,1-17.5,0,22.364,22.364,0,0,1-7.113-4.712,21.672,21.672,0,0,1-4.749-6.955,21.188,21.188,0,0,1,.141-16.871,21.7,21.7,0,0,1,4.8-6.822A22.382,22.382,0,0,1,16.9,4.75,22.773,22.773,0,0,1,25.5,3.075Z" stroke="none"/>
          <path d="M 25.50332069396973 45.46222305297852 C 26.22772979736328 45.46222305297852 26.94668197631836 45.42744827270508 27.6589241027832 45.3581657409668 C 28.37112998962402 45.28887176513672 29.07658576965332 45.18507385253906 29.77405166625977 45.0470085144043 C 30.471435546875 44.90896606445313 31.16079139709473 44.73666763305664 31.84086990356445 44.53037261962891 C 32.52083587646484 44.32411956787109 33.19149017333984 44.08388519287109 33.85159683227539 43.8099479675293 C 34.48953247070313 43.54521560668945 35.11098098754883 43.25193023681641 35.71493530273438 42.93080139160156 C 36.3187370300293 42.6097526550293 36.90503311157227 42.26087951660156 37.47280502319336 41.88485717773438 C 38.0404052734375 41.50895309448242 38.58947372436523 41.10593414306641 39.11901092529297 40.67648315429688 C 39.64836883544922 40.24718856811523 40.15818023681641 39.7914924621582 40.64745712280273 39.31009292602539 C 41.13691711425781 38.82851791381836 41.599609375 38.32732009887695 42.03489303588867 37.80751419067383 C 42.46997833251953 37.28791427612305 42.87766265869141 36.74974060058594 43.25728225708008 36.1939697265625 C 43.63672637939453 35.63844680786133 43.98812484741211 35.06537628173828 44.31081008911133 34.47572708129883 C 44.63335418701172 33.88636779785156 44.92720031738281 33.28046417236328 45.19173049926758 32.65902709960938 C 45.46554565429688 32.0157470703125 45.70477676391602 31.36275291442871 45.90920639038086 30.70124244689941 C 46.11351776123047 30.04008483886719 46.28305816650391 29.37042999267578 46.41762924194336 28.6934757232666 C 46.55211639404297 28.01688957214355 46.65166473388672 27.33302307128906 46.71606826782227 26.64306640625 C 46.78043365478516 25.95349311828613 46.80968856811523 25.25784492492676 46.80362319946289 24.55731010437012 C 46.79756927490234 23.8571720123291 46.75633239746094 23.16271018981934 46.68019104003906 22.47508239746094 C 46.60409545898438 21.78784370422363 46.49313735961914 21.1074275970459 46.34759140014648 20.43499565124512 C 46.2021369934082 19.76293754577637 46.02213287353516 19.09884643554688 45.80786514282227 18.44388961791992 C 45.59371566772461 17.78928184509277 45.3453369140625 17.14378929138184 45.06300354003906 16.50856399536133 C 44.7905387878418 15.89553260803223 44.48947143554688 15.29842281341553 44.16049194335938 14.71816635131836 C 43.8316764831543 14.13818359375 43.47496032714844 13.57502365112305 43.09103775024414 13.02961540222168 C 42.707275390625 12.48444747924805 42.29631805419922 11.95699977874756 41.85885238647461 11.44820213317871 C 41.42156219482422 10.93961620330811 40.95775985717773 10.44964790344238 40.46812057495117 9.979227066040039 C 39.97904968261719 9.509340286254883 39.47035598754883 9.064882278442383 38.94304275512695 8.646464347839355 C 38.41589736938477 8.22818660736084 37.8701171875 7.835915565490723 37.30666732788086 7.470261573791504 C 36.74338912963867 7.10471773147583 36.16243362426758 6.765759944915771 35.56477355957031 6.454006195068359 C 34.96726608276367 6.142330646514893 34.35303115844727 5.857830047607422 33.72304916381836 5.601123332977295 C 33.07144927978516 5.335615158081055 32.40993881225586 5.102874279022217 31.73969268798828 4.903117179870605 C 31.06955146789551 4.703393459320068 30.3906421661377 4.536630630493164 29.70413208007813 4.403049945831299 C 29.01769828796387 4.269484043121338 28.32363510131836 4.169085025787354 27.62310600280762 4.10207986831665 C 26.92262077331543 4.035077571868896 26.21563148498535 4.001461029052734 25.50331878662109 4.001461029052734 C 24.79100608825684 4.001461029052734 24.08402061462402 4.035077571868896 23.38353157043457 4.10207986831665 C 22.68300437927246 4.169085025787354 21.98893547058105 4.269484043121338 21.30250549316406 4.403049945831299 C 20.61599731445313 4.536631107330322 19.93708801269531 4.703393459320068 19.26694679260254 4.903117656707764 C 18.59669876098633 5.102874755859375 17.93518829345703 5.335615158081055 17.28359413146973 5.601123809814453 C 16.65360450744629 5.857830047607422 16.03937149047852 6.142331123352051 15.44186496734619 6.454006195068359 C 14.84420108795166 6.76576042175293 14.2632474899292 7.104718208312988 13.69996929168701 7.470262050628662 C 13.13652324676514 7.835916042327881 12.59074115753174 8.228187561035156 12.06360244750977 8.646464347839355 C 11.53628158569336 9.064882278442383 11.0275936126709 9.509341239929199 10.53851509094238 9.979227066040039 C 10.04887866973877 10.44964790344238 9.585078239440918 10.93961715698242 9.147786140441895 11.44820213317871 C 8.710314750671387 11.95699977874756 8.299362182617188 12.48444747924805 7.915606498718262 13.02961540222168 C 7.531679153442383 13.57502365112305 7.174964904785156 14.13818359375 6.84614372253418 14.71816635131836 C 6.517167091369629 15.29842281341553 6.216102600097656 15.89553260803223 5.943635940551758 16.50856399536133 C 5.661303520202637 17.14378929138184 5.412922382354736 17.78928184509277 5.198771476745605 18.44388961791992 C 4.984505653381348 19.09884643554688 4.80450439453125 19.76293754577637 4.659045696258545 20.43499565124512 C 4.513507843017578 21.1074275970459 4.402548789978027 21.78784370422363 4.326451301574707 22.47508239746094 C 4.250311374664307 23.16271018981934 4.209069728851318 23.8571720123291 4.20301342010498 24.55731010437012 C 4.196952819824219 25.25784492492676 4.226207256317139 25.95349311828613 4.290571689605713 26.64306640625 C 4.354972362518311 27.33302307128906 4.454521656036377 28.01688957214355 4.589013576507568 28.6934757232666 C 4.723577976226807 29.37042999267578 4.893122673034668 30.04008483886719 5.097437381744385 30.70124244689941 C 5.301861763000488 31.36275291442871 5.541090488433838 32.0157470703125 5.814913749694824 32.65902709960938 C 6.079436779022217 33.28046417236328 6.373291492462158 33.88636779785156 6.695828437805176 34.47572708129883 C 7.018520355224609 35.06537628173828 7.369913101196289 35.63844680786133 7.749359607696533 36.1939697265625 C 8.128974914550781 36.74974060058594 8.536656379699707 37.28791427612305 8.97175121307373 37.80751419067383 C 9.407026290893555 38.32732009887695 9.869724273681641 38.82851791381836 10.3591833114624 39.31009292602539 C 10.84845924377441 39.7914924621582 11.35827445983887 40.24718856811523 11.88762760162354 40.67648315429688 C 12.41716575622559 41.10593414306641 12.96623420715332 41.50895309448242 13.53383541107178 41.88485717773438 C 14.10160827636719 42.26087951660156 14.68789768218994 42.6097526550293 15.29169845581055 42.93080139160156 C 15.89565563201904 43.25193023681641 16.51711082458496 43.54521560668945 17.1550464630127 43.8099479675293 C 17.81514549255371 44.08388519287109 18.48580360412598 44.32411956787109 19.16576766967773 44.53037261962891 C 19.84584808349609 44.73666763305664 20.53520202636719 44.90896606445313 21.23258781433105 45.0470085144043 C 21.93004989624023 45.18507385253906 22.6355094909668 45.28887176513672 23.34771728515625 45.3581657409668 C 24.05995941162109 45.42744827270508 24.77891159057617 45.46222305297852 25.50332069396973 45.46222305297852 M 25.50332069396973 46.42088317871094 C 22.39824295043945 46.42088317871094 19.44164848327637 45.80380630493164 16.75570487976074 44.68867874145508 C 14.07217121124268 43.57455444335938 11.6609525680542 41.96416473388672 9.642475128173828 39.97708511352539 C 7.627228260040283 37.99318313598633 6.004691600799561 35.63500595092773 4.893429756164551 33.02169036865234 C 3.784514188766479 30.41389083862305 3.185178756713867 27.55310821533203 3.212301254272461 24.55731010437012 C 3.239357948303223 21.56878280639648 3.88734769821167 18.72846031188965 5.034167289733887 16.15072822570801 C 6.178582668304443 13.57840347290039 7.820220947265625 11.26649188995361 9.838681221008301 9.328287124633789 C 11.85394859313965 7.393148422241211 14.24607086181641 5.829364776611328 16.89645195007324 4.749842166900635 C 19.54448699951172 3.67127251625061 22.45242500305176 3.07525634765625 25.50331878662109 3.07525634765625 C 28.55421447753906 3.07525634765625 31.46214866638184 3.671272277832031 34.11019134521484 4.749841690063477 C 36.76057052612305 5.82936429977417 39.15269088745117 7.393147468566895 41.16795349121094 9.328285217285156 C 43.18642044067383 11.26649188995361 44.82805633544922 13.57840347290039 45.97246932983398 16.15072822570801 C 47.11929321289063 18.72846031188965 47.76728057861328 21.56878280639648 47.79433822631836 24.55731010437012 C 47.82145690917969 27.55310821533203 47.22212600708008 30.41389083862305 46.11320877075195 33.02169036865234 C 45.001953125 35.63500595092773 43.37941360473633 37.99318313598633 41.36417007446289 39.97708511352539 C 39.34568786621094 41.96416473388672 36.93446731567383 43.57455444335938 34.25093460083008 44.68867874145508 C 31.56498908996582 45.80380630493164 28.6083984375 46.42088317871094 25.50332069396973 46.42088317871094 Z" stroke="none" fill="#f5f5f5"/>
        </g>
        <g id="Ellipse_2" data-name="Ellipse 2" transform="translate(2.277 2.124)" fill="rgba(246,8,8,0.95)">
          <path d="M23.226,2.8a20.711,20.711,0,0,1,7.847,1.531,20.388,20.388,0,0,1,6.433,4.185,19.81,19.81,0,0,1,4.375,6.234A19.383,19.383,0,0,1,42,30.159,19.79,19.79,0,0,1,37.67,36.5a20.374,20.374,0,0,1-6.479,4.3,20.873,20.873,0,0,1-15.929,0,20.374,20.374,0,0,1-6.479-4.3,19.79,19.79,0,0,1-4.329-6.345,19.383,19.383,0,0,1,.117-15.4A19.81,19.81,0,0,1,8.947,8.521a20.388,20.388,0,0,1,6.433-4.185A20.711,20.711,0,0,1,23.226,2.8Z" stroke="none"/>
          <path d="M 23.22641181945801 41.42274475097656 C 23.88280868530273 41.42274475097656 24.53425979614258 41.39120101928711 25.17963790893555 41.32833480834961 C 25.82498168945313 41.26546859741211 26.46421813964844 41.17128753662109 27.09622001647949 41.0460090637207 C 27.72815895080566 40.92074584960938 28.35283279418945 40.76440811157227 28.96912002563477 40.57722473144531 C 29.58531379699707 40.39007186889648 30.19308471679688 40.17208099365234 30.79131317138672 39.92350006103516 C 31.36954879760742 39.68322372436523 31.93286895751953 39.41705322265625 32.48036193847656 39.12557983398438 C 33.02772903442383 38.83417892456055 33.55924606323242 38.51749801635742 34.07401275634766 38.17617416381836 C 34.58863830566406 37.83493804931641 35.08650207519531 37.46907806396484 35.56668853759766 37.0792121887207 C 36.04673004150391 36.6894645690918 36.50909805297852 36.2757453918457 36.95287322998047 35.83865737915039 C 37.39690399169922 35.40132904052734 37.81669616699219 34.94617080688477 38.21165084838867 34.47407913208008 C 38.60646057128906 34.00217056274414 38.97643661499023 33.51335906982422 39.32099151611328 33.00854110717773 C 39.66540908813477 32.50393676757813 39.98441314697266 31.98335266113281 40.27741241455078 31.44769477844238 C 40.57029342651367 30.91226959228516 40.83717727661133 30.36179733276367 41.07749176025391 29.79718208312988 C 41.32627868652344 29.21263694763184 41.54371643066406 28.61923217773438 41.72958755493164 28.01805305480957 C 41.91537857055664 27.41716766357422 42.06964492797852 26.80852508544922 42.19218444824219 26.19321060180664 C 42.31466674804688 25.57820320129395 42.40546035766602 24.95653915405273 42.46437454223633 24.32929801940918 C 42.52325820922852 23.70237922668457 42.55029678344727 23.06990051269531 42.5452995300293 22.43293762207031 C 42.54030227661133 21.79630470275879 42.50338363647461 21.16480445861816 42.43478393554688 20.53949165344238 C 42.3662223815918 19.91449928283691 42.26601409912109 19.29568672180176 42.13442993164063 18.68411445617676 C 42.00290679931641 18.07284736633301 41.84001922607422 17.46880340576172 41.64602279663086 16.87304306030273 C 41.45212554931641 16.27757263183594 41.22714996337891 15.69036769866943 40.97134017944336 15.11248302459717 C 40.72447967529297 14.5548152923584 40.4516487121582 14.01160907745361 40.15346145629883 13.48371124267578 C 39.85540390014648 12.95604228973389 39.53201675415039 12.44365787506104 39.18390655517578 11.94740772247314 C 38.8359375 11.45135688781738 38.4632682800293 10.97141456604004 38.06650161743164 10.50842571258545 C 37.66988754272461 10.04561328887939 37.24918365478516 9.599729537963867 36.80501174926758 9.171622276306152 C 36.36139678955078 8.74405574798584 35.89996337890625 8.339615821838379 35.42160415649414 7.958863258361816 C 34.94338989257813 7.578227996826172 34.4482421875 7.221249103546143 33.93704223632813 6.888487339019775 C 33.42598724365234 6.555817127227783 32.89886474609375 6.247337818145752 32.35656356811523 5.963612079620361 C 31.81439018249512 5.679952144622803 31.25701904296875 5.421022891998291 30.68534278869629 5.18739128112793 C 30.09412384033203 4.945772647857666 29.4938907623291 4.73397159576416 28.88570976257324 4.552183628082275 C 28.27761840820313 4.37042236328125 27.66155815124512 4.218657493591309 27.03858375549316 4.097088813781738 C 26.41567420959473 3.975532293319702 25.78582763671875 3.884160757064819 25.15011024475098 3.823179244995117 C 24.51442337036133 3.762200593948364 23.87283706665039 3.731606483459473 23.22641181945801 3.731606483459473 C 22.57998847961426 3.731606483459473 21.93840026855469 3.762200593948364 21.30271530151367 3.823179244995117 C 20.6669979095459 3.884160757064819 20.03715324401855 3.975532293319702 19.41424179077148 4.097088813781738 C 18.79127311706543 4.218657970428467 18.17520523071289 4.37042236328125 17.56711578369141 4.552183628082275 C 16.95893669128418 4.73397159576416 16.35870361328125 4.945773124694824 15.76748847961426 5.187391757965088 C 15.19580554962158 5.421023368835449 14.63844013214111 5.679952144622803 14.096266746521 5.963612079620361 C 13.55396747589111 6.247337818145752 13.02684497833252 6.555817604064941 12.51578330993652 6.888487339019775 C 12.00458526611328 7.221249103546143 11.50943565368652 7.57822847366333 11.03122329711914 7.958863735198975 C 10.5528621673584 8.339616775512695 10.09142971038818 8.744056701660156 9.647815704345703 9.171623229980469 C 9.203641891479492 9.599730491638184 8.782941818237305 10.04561328887939 8.386324882507324 10.50842666625977 C 7.989560604095459 10.97141456604004 7.616885185241699 11.45135688781738 7.268917560577393 11.94740772247314 C 6.920808792114258 12.44365787506104 6.597417831420898 12.95604228973389 6.299362659454346 13.48371124267578 C 6.001179695129395 14.01160907745361 5.728346347808838 14.5548152923584 5.481486320495605 15.11248302459717 C 5.225678443908691 15.69036769866943 5.0007004737854 16.27757263183594 4.806801795959473 16.87304306030273 C 4.612810134887695 17.46880340576172 4.449925422668457 18.07284736633301 4.318398952484131 18.68411445617676 C 4.186808109283447 19.29568672180176 4.086605072021484 19.91449928283691 4.018043518066406 20.53949165344238 C 3.949447870254517 21.16480445861816 3.912524461746216 21.79630470275879 3.907529354095459 22.43293762207031 C 3.902531623840332 23.06990051269531 3.929569721221924 23.70237922668457 3.988455057144165 24.32929801940918 C 4.047369956970215 24.95653915405273 4.138163566589355 25.57820320129395 4.260645866394043 26.19321060180664 C 4.383188247680664 26.80852508544922 4.537449359893799 27.41716766357422 4.723236083984375 28.01805305480957 C 4.90911340713501 28.61923217773438 5.126544952392578 29.21263694763184 5.375336170196533 29.79718208312988 C 5.615647792816162 30.36179733276367 5.882535934448242 30.91226959228516 6.175411224365234 31.44769477844238 C 6.468413829803467 31.98335266113281 6.787418365478516 32.50393676757813 7.131833076477051 33.00854110717773 C 7.476389408111572 33.51335906982422 7.846368789672852 34.00217056274414 8.241174697875977 34.47407913208008 C 8.636130332946777 34.94617080688477 9.05592155456543 35.40132904052734 9.499951362609863 35.83865737915039 C 9.943733215332031 36.2757453918457 10.40609455108643 36.6894645690918 10.88613510131836 37.0792121887207 C 11.36632633209229 37.46907806396484 11.86418914794922 37.83493804931641 12.37881278991699 38.17617416381836 C 12.89358139038086 38.51749801635742 13.42510414123535 38.83417892456055 13.97246646881104 39.12557983398438 C 14.51995849609375 39.41705322265625 15.08327865600586 39.68322372436523 15.66151428222656 39.92350006103516 C 16.25974464416504 40.17208099365234 16.86751556396484 40.39007186889648 17.48370552062988 40.57722473144531 C 18.09998893737793 40.76440811157227 18.72466659545898 40.92074584960938 19.35660171508789 41.0460090637207 C 19.98860740661621 41.17128753662109 20.62784576416016 41.26546859741211 21.27318954467773 41.32833480834961 C 21.9185676574707 41.39120101928711 22.57001686096191 41.42274475097656 23.22641181945801 41.42274475097656 M 23.22641372680664 42.37992858886719 C 20.3995246887207 42.37992858886719 17.70770072937012 41.8173713684082 15.26202487945557 40.80069732666016 C 12.81835556030273 39.78485488891602 10.62222671508789 38.31638336181641 8.783285140991211 36.50419998168945 C 6.947031021118164 34.69466018676758 5.467942237854004 32.54339981079102 4.454123973846436 30.15897560119629 C 3.442258834838867 27.77914237976074 2.894257068634033 25.16794204711914 2.916817426681519 22.43293762207031 C 2.939327955245972 19.70399475097656 3.527804613113403 17.10984420776367 4.571200847625732 14.7550802230835 C 5.61259937286377 12.40482711791992 7.107577323913574 10.29214191436768 8.946505546569824 8.520693778991699 C 10.78277492523193 6.751804351806641 12.96301937103271 5.322190284729004 15.37910842895508 4.335196018218994 C 17.79325103759766 3.348998546600342 20.44459915161133 2.803994417190552 23.22641372680664 2.803994417190552 C 26.00822830200195 2.803994417190552 28.65957832336426 3.348998546600342 31.07371711730957 4.335196018218994 C 33.48980712890625 5.322190284729004 35.67004776000977 6.751803874969482 37.50631713867188 8.520693778991699 C 39.34524536132813 10.29214191436768 40.84022521972656 12.40482807159424 41.88161849975586 14.75508117675781 C 42.92501831054688 17.10984420776367 43.51350021362305 19.70399475097656 43.5360107421875 22.43293762207031 C 43.55856704711914 25.16794204711914 43.01056671142578 27.77914237976074 41.99869918823242 30.15897560119629 C 40.98488616943359 32.54339981079102 39.50579452514648 34.69466018676758 37.66954040527344 36.50419998168945 C 35.83059692382813 38.31638336181641 33.63446426391602 39.78485488891602 31.1908016204834 40.80069732666016 C 28.7451286315918 41.8173713684082 26.05330276489258 42.37992858886719 23.22641372680664 42.37992858886719 Z" stroke="none" fill="#f5f5f5"/>
        </g>
        <g id="Path_1" data-name="Path 1" transform="translate(12.71 4.663)" fill="rgba(246,8,8,0.95)">
          <path d="M2.458,4.018l8.771-1.9,2.092,27.2,19.835-3.017L8.246,35.54Z" stroke="none"/>
          <path d="M 9.018245697021484 34.23206329345703 L 24.08914756774902 28.64928817749023 L 13.47749519348145 30.26387786865234 L 12.40782165527344 30.4266242980957 L 12.32891750335693 29.39521980285645 L 10.33019256591797 3.268996953964233 L 3.588180541992188 4.727148056030273 L 9.018245697021484 34.23206329345703 M 8.246403694152832 35.54021835327148 L 2.457938194274902 4.017903327941895 L 11.22861766815186 2.121734380722046 L 13.32078075408936 29.32588577270508 L 33.15584182739258 26.30910110473633 L 8.246403694152832 35.54021835327148 Z" stroke="none" fill="#f5f5f5"/>
        </g>
      </g>
    </g>
  </g>
</svg>
