<svg xmlns="http://www.w3.org/2000/svg" width="47.501" height="46.35" viewBox="0 0 47.501 46.35">
  <g id="Group_9" data-name="Group 9" transform="matrix(0.998, 0.07, -0.07, 0.998, -575.91, -480.099)" style="isolation: isolate">
    <g id="Group_2" data-name="Group 2">
      <g id="Group_1" data-name="Group 1" transform="translate(607.997 435.443)">
        <g id="Ellipse_1" data-name="Ellipse 1" transform="translate(0 0)" fill="#f3d300">
          <path d="M25.5,3.075A22.773,22.773,0,0,1,34.11,4.75a22.382,22.382,0,0,1,7.058,4.578,21.7,21.7,0,0,1,4.8,6.822,21.188,21.188,0,0,1,.141,16.871,21.672,21.672,0,0,1-4.749,6.955,22.364,22.364,0,0,1-7.113,4.712,22.954,22.954,0,0,1-17.5,0,22.364,22.364,0,0,1-7.113-4.712,21.672,21.672,0,0,1-4.749-6.955,21.188,21.188,0,0,1,.141-16.871,21.7,21.7,0,0,1,4.8-6.822A22.382,22.382,0,0,1,16.9,4.75,22.773,22.773,0,0,1,25.5,3.075Z" stroke="none"/>
          <path d="M 25.50326156616211 45.46222305297852 C 26.22767066955566 45.46222305297852 26.94662094116211 45.42744827270508 27.65886497497559 45.3581657409668 C 28.37106895446777 45.28887176513672 29.0765266418457 45.18507385253906 29.77399063110352 45.0470085144043 C 30.47137451171875 44.90896606445313 31.16073036193848 44.73666763305664 31.8408088684082 44.53037261962891 C 32.52077484130859 44.32411956787109 33.19142913818359 44.08388519287109 33.85153579711914 43.8099479675293 C 34.48947525024414 43.54521560668945 35.11091995239258 43.25193023681641 35.71487808227539 42.93080139160156 C 36.31867980957031 42.6097526550293 36.90497207641602 42.26087951660156 37.47274398803711 41.88485717773438 C 38.04034423828125 41.50895309448242 38.58941268920898 41.10593414306641 39.11894989013672 40.67648315429688 C 39.64830780029297 40.24718856811523 40.15811920166016 39.7914924621582 40.64739608764648 39.31009292602539 C 41.13685607910156 38.82851791381836 41.59955596923828 38.32732009887695 42.03483200073242 37.80751419067383 C 42.46991729736328 37.28791427612305 42.87760162353516 36.74974060058594 43.25722122192383 36.1939697265625 C 43.63666534423828 35.63844680786133 43.98806381225586 35.06537628173828 44.31074905395508 34.47572708129883 C 44.63329315185547 33.88636779785156 44.92713928222656 33.28046417236328 45.19166946411133 32.65902709960938 C 45.46548461914063 32.0157470703125 45.70471954345703 31.36275291442871 45.90914535522461 30.70124244689941 C 46.11346054077148 30.04008483886719 46.28299713134766 29.37042999267578 46.41757202148438 28.6934757232666 C 46.55205917358398 28.01688957214355 46.65160369873047 27.33302307128906 46.71600723266602 26.64306640625 C 46.78037261962891 25.95349311828613 46.80962753295898 25.25784492492676 46.80356216430664 24.55731010437012 C 46.79751205444336 23.8571720123291 46.75627136230469 23.16271018981934 46.68013000488281 22.47508239746094 C 46.60403442382813 21.78784370422363 46.49307632446289 21.1074275970459 46.34753799438477 20.43499565124512 C 46.20207595825195 19.76293754577637 46.02207183837891 19.09884643554688 45.80780410766602 18.44388961791992 C 45.59365844726563 17.78928184509277 45.34527587890625 17.14378929138184 45.06294250488281 16.50856399536133 C 44.79047775268555 15.89553260803223 44.48941421508789 15.29842281341553 44.16043472290039 14.71816635131836 C 43.83161544799805 14.13818359375 43.47489929199219 13.57502365112305 43.09097671508789 13.02961540222168 C 42.70721435546875 12.48444747924805 42.29626083374023 11.95699977874756 41.85879516601563 11.44820213317871 C 41.42150115966797 10.93961620330811 40.95769882202148 10.44964790344238 40.46805953979492 9.979227066040039 C 39.97898864746094 9.509340286254883 39.47029876708984 9.064882278442383 38.9429817199707 8.646464347839355 C 38.41583633422852 8.22818660736084 37.87005615234375 7.835915565490723 37.30661010742188 7.470261573791504 C 36.74333190917969 7.10471773147583 36.16237258911133 6.765759944915771 35.56471633911133 6.454006195068359 C 34.96720504760742 6.142330646514893 34.35297012329102 5.857830047607422 33.72298812866211 5.601123332977295 C 33.07139205932617 5.335615158081055 32.40987777709961 5.102874279022217 31.73963165283203 4.903117179870605 C 31.06949234008789 4.703393459320068 30.39058113098145 4.536630630493164 29.70407295227051 4.403049945831299 C 29.01763916015625 4.269484043121338 28.32357406616211 4.169085025787354 27.623046875 4.10207986831665 C 26.92255973815918 4.035077571868896 26.2155704498291 4.001461029052734 25.50325775146484 4.001461029052734 C 24.79094505310059 4.001461029052734 24.08396148681641 4.035077571868896 23.38347244262695 4.10207986831665 C 22.68294525146484 4.169085025787354 21.98887634277344 4.269484043121338 21.30244445800781 4.403049945831299 C 20.61593818664551 4.536631107330322 19.9370288848877 4.703393459320068 19.26688766479492 4.903117656707764 C 18.59663963317871 5.102874755859375 17.93512916564941 5.335615158081055 17.28353500366211 5.601123809814453 C 16.65354537963867 5.857830047607422 16.0393123626709 6.142331123352051 15.44180488586426 6.454006195068359 C 14.84414100646973 6.76576042175293 14.26318740844727 7.104718208312988 13.69990921020508 7.470262050628662 C 13.1364631652832 7.835916042327881 12.5906810760498 8.228187561035156 12.06354236602783 8.646464347839355 C 11.53622150421143 9.064882278442383 11.02753353118896 9.509341239929199 10.53845500946045 9.979227066040039 C 10.04881763458252 10.44964790344238 9.585018157958984 10.93961715698242 9.147727012634277 11.44820213317871 C 8.710254669189453 11.95699977874756 8.299302101135254 12.48444747924805 7.915546417236328 13.02961540222168 C 7.531619548797607 13.57502365112305 7.174904823303223 14.13818359375 6.846084117889404 14.71816635131836 C 6.517107486724854 15.29842281341553 6.216042995452881 15.89553260803223 5.943575859069824 16.50856399536133 C 5.661243438720703 17.14378929138184 5.412862300872803 17.78928184509277 5.198711395263672 18.44388961791992 C 4.984445571899414 19.09884643554688 4.804444789886475 19.76293754577637 4.658985137939453 20.43499565124512 C 4.513447761535645 21.1074275970459 4.402488708496094 21.78784370422363 4.326391220092773 22.47508239746094 C 4.250250816345215 23.16271018981934 4.209010124206543 23.8571720123291 4.202953338623047 24.55731010437012 C 4.196892738342285 25.25784492492676 4.226147174835205 25.95349311828613 4.290511608123779 26.64306640625 C 4.354912281036377 27.33302307128906 4.454461574554443 28.01688957214355 4.588953495025635 28.6934757232666 C 4.723517894744873 29.37042999267578 4.893062591552734 30.04008483886719 5.097377777099609 30.70124244689941 C 5.301801681518555 31.36275291442871 5.541029930114746 32.0157470703125 5.814853668212891 32.65902709960938 C 6.079377174377441 33.28046417236328 6.373230934143066 33.88636779785156 6.695768356323242 34.47572708129883 C 7.018460273742676 35.06537628173828 7.369853496551514 35.63844680786133 7.749299049377441 36.1939697265625 C 8.128914833068848 36.74974060058594 8.536596298217773 37.28791427612305 8.971691131591797 37.80751419067383 C 9.406966209411621 38.32732009887695 9.869663238525391 38.82851791381836 10.35912322998047 39.31009292602539 C 10.84839916229248 39.7914924621582 11.35821342468262 40.24718856811523 11.8875675201416 40.67648315429688 C 12.41710567474365 41.10593414306641 12.96617412567139 41.50895309448242 13.53377437591553 41.88485717773438 C 14.10154819488525 42.26087951660156 14.68783664703369 42.6097526550293 15.29163837432861 42.93080139160156 C 15.89559555053711 43.25193023681641 16.51704978942871 43.54521560668945 17.15498542785645 43.8099479675293 C 17.81508636474609 44.08388519287109 18.48574256896973 44.32411956787109 19.16570663452148 44.53037261962891 C 19.84578704833984 44.73666763305664 20.53514099121094 44.90896606445313 21.2325267791748 45.0470085144043 C 21.92999076843262 45.18507385253906 22.63544845581055 45.28887176513672 23.34765815734863 45.3581657409668 C 24.05989837646484 45.42744827270508 24.77885246276855 45.46222305297852 25.50326156616211 45.46222305297852 M 25.50326156616211 46.42088317871094 C 22.39818382263184 46.42088317871094 19.44158744812012 45.80380630493164 16.75564384460449 44.68867874145508 C 14.07211112976074 43.57455444335938 11.66089248657227 41.96416473388672 9.642414093017578 39.97708511352539 C 7.627167701721191 37.99318313598633 6.004631042480469 35.63500595092773 4.893369197845459 33.02169036865234 C 3.784454107284546 30.41389083862305 3.185118675231934 27.55310821533203 3.212240934371948 24.55731010437012 C 3.23929762840271 21.56878280639648 3.887287616729736 18.72846031188965 5.034107208251953 16.15072822570801 C 6.178523063659668 13.57840347290039 7.820160865783691 11.26649188995361 9.838621139526367 9.328287124633789 C 11.85388946533203 7.393148422241211 14.24601078033447 5.829364776611328 16.89639282226563 4.749842166900635 C 19.5444278717041 3.67127251625061 22.45236587524414 3.07525634765625 25.50325965881348 3.07525634765625 C 28.55415344238281 3.07525634765625 31.46208763122559 3.671272277832031 34.11013031005859 4.749841690063477 C 36.7605094909668 5.82936429977417 39.15262985229492 7.393147468566895 41.16789627075195 9.328285217285156 C 43.18636322021484 11.26649188995361 44.82799530029297 13.57840347290039 45.972412109375 16.15072822570801 C 47.11923217773438 18.72846031188965 47.76721954345703 21.56878280639648 47.79427719116211 24.55731010437012 C 47.8213996887207 27.55310821533203 47.22206497192383 30.41389083862305 46.1131477355957 33.02169036865234 C 45.00189208984375 35.63500595092773 43.37935256958008 37.99318313598633 41.36410903930664 39.97708511352539 C 39.34562683105469 41.96416473388672 36.93441009521484 43.57455444335938 34.25087356567383 44.68867874145508 C 31.5649299621582 45.80380630493164 28.60833930969238 46.42088317871094 25.50326156616211 46.42088317871094 Z" stroke="none" fill="#f5f5f5"/>
        </g>
        <g id="Ellipse_2" data-name="Ellipse 2" transform="translate(2.277 2.124)" fill="#f3d300">
          <path d="M23.226,2.8a20.711,20.711,0,0,1,7.847,1.531,20.388,20.388,0,0,1,6.433,4.185,19.81,19.81,0,0,1,4.375,6.234A19.383,19.383,0,0,1,42,30.159,19.79,19.79,0,0,1,37.67,36.5a20.374,20.374,0,0,1-6.479,4.3,20.873,20.873,0,0,1-15.929,0,20.374,20.374,0,0,1-6.479-4.3,19.79,19.79,0,0,1-4.329-6.345,19.383,19.383,0,0,1,.117-15.4A19.81,19.81,0,0,1,8.947,8.521a20.388,20.388,0,0,1,6.433-4.185A20.711,20.711,0,0,1,23.226,2.8Z" stroke="none"/>
          <path d="M 23.22641181945801 41.42271423339844 C 23.88280868530273 41.42271423339844 24.53425979614258 41.39117050170898 25.17963790893555 41.32830429077148 C 25.82498168945313 41.26543807983398 26.46422004699707 41.17125701904297 27.09622192382813 41.04597854614258 C 27.7281608581543 40.92071533203125 28.35283279418945 40.76437759399414 28.96912002563477 40.57719421386719 C 29.58531379699707 40.39004135131836 30.19308662414551 40.17205047607422 30.79131317138672 39.92346954345703 C 31.36954879760742 39.68319320678711 31.93286895751953 39.41702270507813 32.48036575317383 39.12554931640625 C 33.02772903442383 38.83414840698242 33.55924606323242 38.5174674987793 34.07401275634766 38.17614364624023 C 34.58864212036133 37.83490753173828 35.08650207519531 37.46904754638672 35.56668853759766 37.07918167114258 C 36.04673004150391 36.68943405151367 36.50909805297852 36.27571487426758 36.95287322998047 35.83862686157227 C 37.39690399169922 35.40129852294922 37.81669616699219 34.94614028930664 38.21165084838867 34.47404861450195 C 38.60646057128906 34.00214004516602 38.97643661499023 33.51332855224609 39.32099151611328 33.00851058959961 C 39.66540908813477 32.50390625 39.98441314697266 31.98332214355469 40.27741241455078 31.44766426086426 C 40.57029342651367 30.91223907470703 40.83717727661133 30.36176681518555 41.07749176025391 29.79715156555176 C 41.32627868652344 29.21260643005371 41.54371643066406 28.61920166015625 41.72958755493164 28.01802253723145 C 41.91537857055664 27.41713714599609 42.06964492797852 26.80849647521973 42.19218444824219 26.19318008422852 C 42.31466674804688 25.57817268371582 42.40546035766602 24.95650863647461 42.46437454223633 24.32926750183105 C 42.52325820922852 23.70234870910645 42.55029678344727 23.06986999511719 42.5452995300293 22.43290710449219 C 42.54030227661133 21.79627418518066 42.50338363647461 21.16477394104004 42.43478393554688 20.53946113586426 C 42.3662223815918 19.91447067260742 42.26601409912109 19.29565620422363 42.13442993164063 18.68408393859863 C 42.00290679931641 18.07281684875488 41.84001922607422 17.46877288818359 41.64602279663086 16.87301254272461 C 41.45212554931641 16.27754211425781 41.22714996337891 15.69033718109131 40.97134017944336 15.11245250701904 C 40.72447967529297 14.55478477478027 40.4516487121582 14.01157855987549 40.15346145629883 13.48368167877197 C 39.85540390014648 12.95601177215576 39.53201675415039 12.44362735748291 39.18390655517578 11.94737720489502 C 38.8359375 11.45132732391357 38.4632682800293 10.97138500213623 38.06650161743164 10.50839519500732 C 37.66988754272461 10.04558277130127 37.24918365478516 9.599699020385742 36.80501174926758 9.171592712402344 C 36.36139678955078 8.744025230407715 35.89996337890625 8.339585304260254 35.42160415649414 7.958832740783691 C 34.94338989257813 7.578197479248047 34.4482421875 7.221219062805176 33.93704223632813 6.888457298278809 C 33.42598724365234 6.555787086486816 32.89886474609375 6.247307777404785 32.35656356811523 5.963582038879395 C 31.81439018249512 5.679922103881836 31.25701904296875 5.420992851257324 30.68534278869629 5.187361240386963 C 30.09412384033203 4.945743083953857 29.4938907623291 4.733941555023193 28.88570976257324 4.552153587341309 C 28.27761840820313 4.370392322540283 27.66155815124512 4.218627452850342 27.03858375549316 4.097058773040771 C 26.41567420959473 3.975502252578735 25.78582763671875 3.884130716323853 25.15011024475098 3.82314920425415 C 24.51442337036133 3.762170553207397 23.87283706665039 3.731576442718506 23.22641181945801 3.731576442718506 C 22.57998847961426 3.731576442718506 21.93840026855469 3.762170553207397 21.30271530151367 3.82314920425415 C 20.6669979095459 3.884130716323853 20.03715324401855 3.975502252578735 19.41424179077148 4.097058773040771 C 18.79127311706543 4.2186279296875 18.17520523071289 4.370392322540283 17.56711578369141 4.552153587341309 C 16.95893669128418 4.733941555023193 16.35870361328125 4.945743083953857 15.76748847961426 5.187361717224121 C 15.19580554962158 5.420993328094482 14.63844013214111 5.679922103881836 14.096266746521 5.963582038879395 C 13.55396747589111 6.247307777404785 13.02684497833252 6.555787563323975 12.51578330993652 6.888457298278809 C 12.00458526611328 7.221219062805176 11.50943660736084 7.578197956085205 11.03122329711914 7.958833694458008 C 10.5528621673584 8.33958625793457 10.09142971038818 8.744026184082031 9.647815704345703 9.17159366607666 C 9.203642845153809 9.599699974060059 8.782941818237305 10.04558277130127 8.386324882507324 10.50839614868164 C 7.989560604095459 10.97138500213623 7.616885662078857 11.45132732391357 7.268917560577393 11.94737720489502 C 6.920809268951416 12.44362735748291 6.597417831420898 12.95601177215576 6.299362659454346 13.48368167877197 C 6.001179695129395 14.01157855987549 5.728346824645996 14.55478477478027 5.481486320495605 15.11245250701904 C 5.225678443908691 15.69033718109131 5.0007004737854 16.27754211425781 4.806802272796631 16.87301254272461 C 4.612810134887695 17.46877288818359 4.449925899505615 18.07281684875488 4.318399429321289 18.68408393859863 C 4.186808109283447 19.29565620422363 4.086605548858643 19.91447067260742 4.018043994903564 20.53946113586426 C 3.949448108673096 21.16477394104004 3.912524938583374 21.79627418518066 3.907529830932617 22.43290710449219 C 3.90253210067749 23.06986999511719 3.929570198059082 23.70234870910645 3.988455533981323 24.32926750183105 C 4.047370433807373 24.95650863647461 4.138164043426514 25.57817268371582 4.260645866394043 26.19318008422852 C 4.383188724517822 26.80849647521973 4.537449836730957 27.41713714599609 4.723236560821533 28.01802253723145 C 4.90911340713501 28.61920166015625 5.126545429229736 29.21260643005371 5.375336647033691 29.79715156555176 C 5.61564826965332 30.36176681518555 5.8825364112854 30.91223907470703 6.175411701202393 31.44766426086426 C 6.468414306640625 31.98332214355469 6.787418842315674 32.50390625 7.131833553314209 33.00851058959961 C 7.47638988494873 33.51332855224609 7.84636926651001 34.00214004516602 8.241174697875977 34.47404861450195 C 8.636131286621094 34.94614028930664 9.055922508239746 35.40129852294922 9.499951362609863 35.83862686157227 C 9.943733215332031 36.27571487426758 10.40609550476074 36.68943405151367 10.88613605499268 37.07918167114258 C 11.36632633209229 37.46904754638672 11.86418914794922 37.83490753173828 12.37881374359131 38.17614364624023 C 12.89358234405518 38.5174674987793 13.42510414123535 38.83414840698242 13.97246646881104 39.12554931640625 C 14.51995944976807 39.41702270507813 15.08327960968018 39.68319320678711 15.66151428222656 39.92346954345703 C 16.25974464416504 40.17205047607422 16.86751556396484 40.39004135131836 17.48370742797852 40.57719421386719 C 18.09998893737793 40.76437759399414 18.72466659545898 40.92071533203125 19.35660362243652 41.04597854614258 C 19.98860931396484 41.17125701904297 20.62784576416016 41.26543807983398 21.27318954467773 41.32830429077148 C 21.9185676574707 41.39117050170898 22.57001686096191 41.42271423339844 23.22641181945801 41.42271423339844 M 23.22641563415527 42.37989807128906 C 20.39952659606934 42.37989807128906 17.70770072937012 41.81734085083008 15.26202583312988 40.80066680908203 C 12.81835651397705 39.78482437133789 10.62222766876221 38.31635284423828 8.783286094665527 36.50416946411133 C 6.947031021118164 34.69462966918945 5.467942714691162 32.54336929321289 4.454124450683594 30.15894508361816 C 3.442259311676025 27.77911186218262 2.894257307052612 25.16791152954102 2.916817665100098 22.43290710449219 C 2.939328193664551 19.70396614074707 3.527804851531982 17.10981369018555 4.571200847625732 14.75505065917969 C 5.612599849700928 12.40479755401611 7.107577800750732 10.29211139678955 8.946505546569824 8.520663261413574 C 10.78277492523193 6.751774311065674 12.96301937103271 5.322160243988037 15.37910842895508 4.335165977478027 C 17.79325103759766 3.348968505859375 20.44459915161133 2.803964614868164 23.22641372680664 2.803964614868164 C 26.00822830200195 2.803964614868164 28.65957832336426 3.348968505859375 31.07371711730957 4.335165977478027 C 33.48980712890625 5.322160243988037 35.67004776000977 6.751773834228516 37.50631713867188 8.520663261413574 C 39.34524536132813 10.29211139678955 40.84022521972656 12.40479850769043 41.88161849975586 14.755051612854 C 42.92501831054688 17.10981369018555 43.51350021362305 19.70396614074707 43.5360107421875 22.43290710449219 C 43.55856704711914 25.16791152954102 43.01056671142578 27.77911186218262 41.99869918823242 30.15894508361816 C 40.98488616943359 32.54336929321289 39.50579452514648 34.69462966918945 37.66954040527344 36.50416946411133 C 35.83059692382813 38.31635284423828 33.63446807861328 39.78482437133789 31.1908016204834 40.80066680908203 C 28.74513053894043 41.81734085083008 26.05330467224121 42.37989807128906 23.22641563415527 42.37989807128906 Z" stroke="none" fill="#f5f5f5"/>
        </g>
        <g id="Path_1" data-name="Path 1" transform="translate(12.71 4.663)" fill="#f3d300">
          <path d="M2.458,4.018l8.771-1.9,2.092,27.2,19.835-3.017L8.246,35.54Z" stroke="none"/>
          <path d="M 9.018306732177734 34.23209381103516 L 24.08920669555664 28.64931869506836 L 13.4775562286377 30.26390838623047 L 12.40788173675537 30.42665481567383 L 12.32897758483887 29.39525032043457 L 10.3302526473999 3.2690269947052 L 3.588240623474121 4.72717809677124 L 9.018306732177734 34.23209381103516 M 8.246462821960449 35.54024887084961 L 2.457998275756836 4.017933368682861 L 11.22867774963379 2.121764421463013 L 13.32084178924561 29.3259162902832 L 33.15589904785156 26.30913162231445 L 8.246462821960449 35.54024887084961 Z" stroke="none" fill="#f5f5f5"/>
        </g>
      </g>
    </g>
  </g>
</svg>
